<?xml version="1.0" encoding="utf-8"?>
<!-- Generator: Adobe Illustrator 23.0.3, SVG Export Plug-In . SVG Version: 6.00 Build 0)  -->
<svg version="1.1" id="Capa_1" xmlns="http://www.w3.org/2000/svg" xmlns:xlink="http://www.w3.org/1999/xlink" x="0px" y="0px"
	 viewBox="0 0 436 67" style="enable-background:new 0 0 436 67;" xml:space="preserve">
<style type="text/css">
	.st0{fill:#406044;}
	.st1{fill:#FFFFFF;}
	.st2{fill:#D6AB6D;}
	.st3{fill:#87143A;}
	.st4{fill:#B3975A;}
</style>
<path class="st1" d="M109.08,47.14l-0.12-18.93c-0.11,0.65-0.27,1.24-0.59,1.94l-7.25,16.45h-3.27l-6.95-15.87
	c-0.35-0.77-0.51-1.28-0.58-1.98l-0.28,18.4H85.8l0.47-26.83h4.76l8.78,19.87l9.05-19.87h4.71l0.32,26.83H109.08z"/>
<path class="st1" d="M147.61,32.4c-0.99-0.16-1.43-0.21-1.92-0.21c-1.69,0-2.17,0.36-4.33,3.81v11.14h-4.87V28.18l3.86-0.32
	c0.28,0.61,0.48,2.49,0.56,4.25c1.77-3.61,2.77-4.25,4.55-4.25c0.84,0,1.69,0.12,2.68,0.41L147.61,32.4z"/>
<path class="st1" d="M163.11,32.11c-1.29-0.4-2.62-0.56-3.63-0.56c-3.41,0-4.9,2-4.9,6.45c0,3.7,1.29,5.54,4.38,5.54
	c1.56,0,3.09-0.4,4.55-1.09l1.24,3.41c-1.85,1.01-4.1,1.56-6.8,1.56c-5.39,0-8.28-2.52-8.28-9.06c0-7.14,3.94-10.62,9.37-10.62
	c1.89,0,3.57,0.2,5.07,0.84L163.11,32.11z"/>
<path class="st1" d="M199.74,47.14V33.99c0-1.32-0.4-2.17-1.88-2.17c-1.25,0-2.98,0.88-4.62,2.44v12.87h-4.91V28.18l4.26-0.28
	c0.24,0.57,0.4,1.77,0.48,2.93c2.25-2.05,4.63-3.09,6.71-3.09c3.58,0,4.91,1.72,4.91,5.33v14.06H199.74z"/>
<path class="st1" d="M214,47.46c-3.37,0-5.06-1.4-5.06-4.85v-10.9l0.12-3.49l0.04-5.5l4.78-0.36v5.87h5.63l-0.28,3.53h-5.35v10.62
	c0,1.04,0.36,1.4,1.41,1.4c1.05,0,2.62-0.28,3.78-0.8l0.85,3.25C218.5,46.98,216.49,47.46,214,47.46"/>
<path class="st1" d="M222.9,47.14V28.26l4.83-0.28v19.16H222.9z M222.79,20.16h4.95v4.33h-4.95V20.16z"/>
<path class="st1" d="M231.2,18.36l4.83-0.28v23.81c0,1.32,0.08,1.64,1.16,1.64c0.33,0,0.77,0,1.58-0.08l0.11,3.41
	c-0.88,0.28-2.53,0.47-3.98,0.47c-2.49,0-3.7-1.04-3.7-3.72V18.36z"/>
<path class="st1" d="M132.79,41.93c-1.9,1-4.27,1.8-6.28,1.8c-3.22,0-4.58-1.7-4.58-5.09c0-0.97,0.08-2.21,0.17-2.92
	c0.33-2.86,1.81-4.37,4.02-4.37c2,0,3.09,1.36,3.09,4.37h-5.56v2.92h9.82c0.12-1,0.12-1.64,0.12-2.16c0-5.33-1.81-8.71-6.96-8.71
	c-6.07,0-9.53,4.18-9.53,10.71c0,6.37,3.22,8.93,8.72,8.93c2.98,0,5.91-0.84,8.12-2.24L132.79,41.93z"/>
<path class="st1" d="M182.78,41.81v-7.86c0-3.97-1.24-6.29-5.76-6.29c-3.89,0-6.71,1.04-9.4,3.01l1.93,2.96
	c1.89-1.36,4.26-2.2,6.31-2.2c1.45,0,2.01,0.6,2.01,2.32v2.77v5.73c-0.81,0.92-2.38,1.85-3.94,1.85c-1.57,0-2.45-0.97-2.45-2.49
	c0-1.3,1.02-1.92,4.93-2.29v-2.67c-8.14,0.79-9.6,2.58-9.6,5.16c0,3.65,2.41,5.66,5.31,5.66c2.41,0,4.34-0.72,5.95-2.49
	c0.44,1.52,1.88,2.36,4.66,2.36c0.56,0,1.25,0,1.97-0.03l0.81-3.57C182.94,43.41,182.78,43.22,182.78,41.81"/>
<path class="st1" d="M255.14,47.47c-3.27,0-5.7-0.55-8.35-1.75l1.29-4.08c2.18,0.97,5.11,1.67,7.49,1.67c3.08,0,4.73-1.36,4.73-3.22
	c0-1.98-0.86-2.92-4.88-4.09c-5.3-1.52-7.64-3.11-7.64-7.9c0-4.59,3.17-8.17,9.09-8.17c3.16,0,5.88,0.62,7.88,1.64l-1.21,3.77
	c-1.91-0.78-4.63-1.29-6.36-1.29c-3.08,0-4.37,1.17-4.37,3.35c0,1.9,0.66,2.91,4.37,4c6.67,1.94,8.11,3.93,8.11,7.86
	C265.28,43.85,261.81,47.47,255.14,47.47"/>
<path class="st1" d="M302.46,47.14V33.99c0-1.32-0.4-2.17-1.89-2.17c-1.25,0-2.98,0.88-4.63,2.44v12.87h-4.91V28.18l4.26-0.28
	c0.25,0.57,0.41,1.77,0.48,2.93c2.25-2.05,4.63-3.09,6.72-3.09c3.58,0,4.91,1.72,4.91,5.33v14.06H302.46z"/>
<path class="st1" d="M318.58,47.46c-3.38,0-5.07-1.4-5.07-4.85v-10.9l-2.41-0.12l0.28-3.29l2.25-0.08l0.56-5.89l4.26-0.36v6.25h5.63
	l-0.28,3.53h-5.35v10.62c0,1.04,0.36,1.4,1.41,1.4c1.05,0,2.62-0.28,3.78-0.8l0.84,3.25C323.08,46.98,321.07,47.46,318.58,47.46"/>
<path class="st1" d="M284.93,41.81v-7.86c0-3.97-1.24-6.29-5.76-6.29c-3.9,0-6.71,1.04-9.41,3.01l1.93,2.96
	c1.89-1.36,4.26-2.2,6.31-2.2c1.45,0,2.01,0.6,2.01,2.32v2.77v5.73c-0.81,0.92-2.38,1.85-3.95,1.85c-1.57,0-2.45-0.97-2.45-2.49
	c0-1.3,1.02-1.92,4.92-2.29v-2.67c-8.14,0.79-9.6,2.58-9.6,5.16c0,3.65,2.42,5.66,5.31,5.66c2.41,0,4.33-0.72,5.95-2.49
	c0.45,1.52,1.89,2.36,4.67,2.36c0.57,0,1.25,0,1.97-0.03l0.81-3.57C285.09,43.41,284.93,43.22,284.93,41.81"/>
<path class="st1" d="M343.57,41.81v-7.86c0-3.97-1.25-6.29-5.76-6.29c-3.9,0-6.71,1.04-9.4,3.01l1.93,2.96
	c1.89-1.36,4.26-2.2,6.31-2.2c1.45,0,2.01,0.6,2.01,2.32c0,0.96,0.01,2.77,0.01,2.77l-0.01,5.73c-0.8,0.92-2.37,1.85-3.94,1.85
	c-1.57,0-2.45-0.97-2.45-2.49c0-1.3,1.02-1.92,4.93-2.29v-2.67c-8.13,0.79-9.59,2.58-9.59,5.16c0,3.65,2.42,5.66,5.3,5.66
	c2.42,0,4.35-0.72,5.96-2.49c0.45,1.52,1.89,2.36,4.67,2.36c0.56,0,1.25,0,1.97-0.03l0.8-3.57
	C343.73,43.41,343.57,43.22,343.57,41.81"/>
<path class="st1" d="M390.62,32.27c-0.6-0.04-1.04-0.08-1.53-0.08c-1.69,0-2.17,0.36-4.35,3.81v11.14h-4.86V28.18l3.86-0.32
	c0.27,0.61,0.48,2.49,0.56,4.25c1.77-3.61,2.78-4.25,4.55-4.25c0.84,0,1.69,0.12,2.29,0.29L390.62,32.27z"/>
<polygon class="st1" points="430.47,31.1 421.78,43.61 430.67,43.61 430.31,47.14 415.99,47.14 415.67,44.05 424.56,31.71 
	416.11,31.71 416.51,28.22 430.18,28.22 "/>
<path class="st1" d="M372.61,25.41c-1.32-0.52-3.68-1.28-6.09-1.28c-4.45,0-7.14,3.15-7.14,9.76c0,7.43,3.19,9.41,6.94,9.41
	c2.58,0,5.03-0.82,7.18-2.07l1.33,3.62c-2.69,1.63-5.42,2.56-9.48,2.56c-7.29,0-11.15-4.01-11.15-13.1
	c0-8.79,4.44-14.23,12.24-14.23c3.48,0,5.43,0.46,7.53,1.44L372.61,25.41z"/>
<path class="st1" d="M413.14,43.69c-1.95-0.26-2.32-0.48-2.39-1.43v-14.2l-4.94,0.24v12.87c-1.69,1.57-3.22,2.24-4.43,2.24
	c-1.45,0-1.97-0.8-1.97-2.16V28.06l-4.95,0.2v13.79c0,3.53,1.25,5.42,4.9,5.42c2.09,0,4.37-0.92,6.58-2.91
	c0.02,0.12,0.05,0.26,0.08,0.43c0.45,1.52,1.9,2.36,4.67,2.36c0.56,0,1.24,0,1.97-0.03L413.14,43.69z"/>
<g>
	<path class="st2" d="M3.05,33.23c0-16.46,13.18-29.81,29.43-29.81c16.26,0,29.43,13.35,29.43,29.81
		c0,16.47-13.18,29.82-29.43,29.82C16.23,63.04,3.05,49.69,3.05,33.23"/>
	<path class="st3" d="M32.48,62.84c-16.11,0-29.23-13.28-29.23-29.6c0-16.33,13.12-29.61,29.23-29.61
		c16.12,0,29.23,13.28,29.23,29.61C61.71,49.56,48.6,62.84,32.48,62.84 M62.77,33.23c0-16.93-13.59-30.69-30.29-30.69
		c-16.7,0-30.29,13.76-30.29,30.69c0,16.91,13.58,30.67,30.29,30.67C49.18,63.91,62.77,50.15,62.77,33.23"/>
	<path class="st3" d="M32.48,62.84c-16.11,0-29.23-13.28-29.23-29.6c0-16.33,13.12-29.61,29.23-29.61
		c16.12,0,29.23,13.28,29.23,29.61C61.71,49.56,48.6,62.84,32.48,62.84 M62.77,33.23c0-16.93-13.59-30.69-30.29-30.69
		c-16.7,0-30.29,13.76-30.29,30.69c0,16.91,13.58,30.67,30.29,30.67C49.18,63.91,62.77,50.15,62.77,33.23"/>
	<path class="st3" d="M11.01,33.23c0,12.28,9.63,22.26,21.46,22.26c11.85,0,21.48-9.99,21.48-22.26c0-12.29-9.64-22.28-21.48-22.28
		C20.64,10.96,11.01,20.94,11.01,33.23 M11.83,33.23c0-11.82,9.26-21.43,20.65-21.43c11.39,0,20.65,9.61,20.65,21.43
		c0,11.81-9.26,21.43-20.65,21.43C21.09,54.66,11.83,45.05,11.83,33.23"/>
	<polygon class="st3" points="8.67,26.67 8.16,27.88 8.15,27.87 7.56,26.69 6.26,26.57 6.26,26.56 7.19,25.68 6.88,24.4 6.9,24.39 
		8.04,25.03 9.18,24.33 9.19,24.34 8.97,25.65 9.93,26.48 9.93,26.49 	"/>
	<polygon class="st3" points="8.3,38.18 8.38,39.51 8.37,39.51 7.32,38.71 6.11,39.21 6.1,39.21 6.53,37.97 5.7,36.98 5.71,36.97 
		7.03,37.01 7.73,35.88 7.73,35.88 8.12,37.13 9.34,37.46 9.34,37.47 	"/>
	<polygon class="st3" points="13.06,48.67 13.74,49.82 13.74,49.82 12.43,49.6 11.59,50.59 11.57,50.59 11.39,49.3 10.23,48.78 
		10.23,48.77 11.39,48.21 11.54,46.88 11.55,46.87 12.44,47.82 13.69,47.54 13.7,47.55 	"/>
	<polygon class="st3" points="22.01,55.87 23.1,56.59 21.85,56.98 21.51,58.26 21.5,58.26 20.78,57.18 19.49,57.26 19.49,57.24 
		20.31,56.21 19.82,54.95 19.83,54.95 21.07,55.4 22.04,54.57 22.05,54.57 	"/>
	<polygon class="st3" points="33.15,58.19 34.46,58.35 34.46,58.36 33.5,59.27 33.78,60.57 33.78,60.58 32.65,59.92 31.54,60.59 
		31.53,60.58 31.79,59.27 30.82,58.38 30.82,58.37 32.11,58.2 32.63,57.04 32.64,57.04 	"/>
	<polygon class="st3" points="44.17,55.24 45.41,54.77 45.42,54.78 44.96,56.04 45.79,57.06 45.79,57.08 44.49,57.02 43.79,58.11 
		43.78,58.1 43.43,56.83 42.17,56.47 42.17,56.45 43.24,55.73 43.19,54.43 43.2,54.43 	"/>
	<polygon class="st3" points="52.71,47.55 53.59,46.58 53.6,46.59 53.77,47.91 54.94,48.46 54.94,48.47 53.78,49 53.62,50.29 
		53.61,50.29 52.75,49.31 51.44,49.56 51.44,49.56 52.1,48.41 51.45,47.29 51.46,47.28 	"/>
	<polygon class="st3" points="56.88,36.82 57.26,35.55 57.27,35.55 57.99,36.65 59.3,36.61 59.31,36.63 58.48,37.62 58.94,38.85 
		58.93,38.86 57.7,38.37 56.67,39.2 56.66,39.2 56.71,37.87 55.67,37.16 55.67,37.15 	"/>
	<polygon class="st3" points="55.89,25.34 55.65,24.03 55.67,24.02 56.8,24.71 57.95,24.05 57.96,24.05 57.67,25.34 58.62,26.21 
		58.62,26.23 57.31,26.37 56.74,27.56 56.73,27.56 56.2,26.37 54.94,26.19 54.94,26.18 	"/>
	<path class="st3" d="M15.59,16.18l-0.88-0.86c0.28-0.27,0.55-0.41,0.78-0.42c0.16,0,0.3,0.06,0.41,0.17
		c0.24,0.24,0.21,0.62,0.01,0.81C15.77,16.02,15.68,16.11,15.59,16.18 M13.58,14.2c0.37-0.34,0.72-0.41,0.98-0.15
		c0.12,0.12,0.18,0.26,0.19,0.41c0,0.13-0.05,0.25-0.15,0.35c0,0-0.12,0.12-0.19,0.2L13.58,14.2z M15.18,14.39
		c0.1-0.36,0.02-0.64-0.23-0.88c-0.41-0.41-1-0.32-1.54,0.23c-0.25,0.26-0.67,0.73-0.73,0.93c-0.05,0.18,0.05,0.26,0.13,0.3
		l0.05,0.03l0.04-0.03l0.28-0.23l1.94,1.92L15,16.88c-0.05,0.08-0.06,0.16-0.03,0.23c0.02,0.07,0.06,0.12,0.12,0.15l0.06,0.03
		l0.04-0.05c0.23-0.27,0.27-0.29,0.54-0.57l0.01-0.01c0.12-0.11,0.19-0.18,0.25-0.24c0.06-0.06,0.13-0.11,0.25-0.23
		c0.51-0.54,0.53-1.2,0.04-1.68C16.01,14.24,15.58,14.2,15.18,14.39"/>
	<path class="st3" d="M21.56,11.28c-0.07,0.24-0.23,0.43-0.47,0.57c-0.57,0.33-1.13,0.05-1.59-0.76c-0.39-0.71-0.3-1.33,0.24-1.64
		c0.25-0.14,0.5-0.18,0.73-0.12c0.31,0.09,0.61,0.38,0.86,0.83C21.57,10.58,21.65,10.98,21.56,11.28 M19.64,8.9
		c-0.96,0.55-1.2,1.66-0.59,2.76c0.27,0.5,0.62,0.81,1.03,0.93c0.36,0.1,0.73,0.04,1.11-0.18c1.02-0.58,1.27-1.65,0.64-2.79
		C21.3,8.66,20.52,8.4,19.64,8.9"/>
	<path class="st3" d="M28.63,8.65V8.58l-0.06-0.01c-0.09-0.02-0.17-0.01-0.25,0.04c-0.08,0.05-0.13,0.14-0.15,0.25
		c0,0-0.04,0.27-0.06,0.4l-1.12,0.2L26.4,6.81l0.22-0.07c0.09-0.03,0.33-0.11,0.24-0.41l-0.02-0.08l-0.08,0.03l-1.12,0.25
		C25.48,6.55,25.4,6.6,25.35,6.7c-0.03,0.04-0.04,0.13,0,0.24L25.38,7l0.06-0.01l0.31-0.04l0.59,2.71l-0.21,0.11
		c-0.08,0.04-0.12,0.1-0.14,0.17c-0.01,0.06,0,0.14,0.04,0.2l0.03,0.05l0.06-0.01l2.43-0.55l0.07-0.01V9.53L28.63,8.65z"/>
	<path class="st3" d="M33.6,6.11c0.08-0.01,0.18-0.02,0.25-0.1c0.06-0.08,0.05-0.17,0.05-0.24l0-0.07l-0.08,0l-1.09-0.03
		c-0.15,0-0.25,0.03-0.31,0.11c-0.03,0.03-0.07,0.11-0.06,0.23l0.01,0.06l0.07,0.01l0.33,0.05l-0.08,2.76l-0.25,0.05
		c-0.11,0.02-0.18,0.07-0.22,0.14c-0.02,0.04-0.04,0.12-0.01,0.2l0.03,0.07l0.06-0.01c0.15-0.01,0.38,0,0.61,0.01h0.03h0.01
		c0.23,0.01,0.43,0.01,0.56,0.03c0.1,0.01,0.19-0.02,0.25-0.07c0.06-0.05,0.09-0.14,0.09-0.22L33.85,9l-0.08-0.01l-0.42-0.09
		l0.07-2.77L33.6,6.11z"/>
	<path class="st3" d="M40.32,6.9c-0.11-0.03-0.22-0.02-0.3,0.04c-0.07,0.05-0.1,0.12-0.1,0.19v0.06l0.04,0.03l0.29,0.14l-1.24,1.91
		l-0.12-2.3L39.06,7c0.25,0.04,0.39-0.11,0.43-0.25l0.02-0.08l-0.08-0.04l-1.1-0.31c-0.12-0.04-0.24-0.03-0.33,0.04
		c-0.07,0.05-0.1,0.12-0.12,0.21v0.07l0.05,0.03l0.25,0.11l0.16,3.45l0.01,0.08l0.08,0c0.31,0.04,0.54-0.07,0.73-0.34
		c0,0,1.36-2.01,1.6-2.38c0.16,0.06,0.29,0.06,0.39,0.01c0.1-0.05,0.16-0.15,0.19-0.3l0.02-0.08l-0.08-0.02L40.32,6.9z"/>
	<path class="st3" d="M45.52,9.24c-0.12-0.08-0.23-0.1-0.32-0.07c-0.05,0.02-0.11,0.07-0.15,0.17l-0.02,0.07l0.05,0.04l0.27,0.2
		l-1.4,2.38l-0.25-0.09c-0.11-0.03-0.19-0.03-0.26,0.01c-0.04,0.02-0.09,0.08-0.11,0.17l-0.01,0.06l0.05,0.04
		c0.14,0.07,0.37,0.21,0.56,0.32c0.19,0.11,0.37,0.22,0.49,0.31c0.08,0.05,0.17,0.08,0.26,0.05c0.07-0.01,0.14-0.07,0.19-0.14
		l0.03-0.06l-0.05-0.05l-0.33-0.3l1.41-2.37l0.16,0.08c0.08,0.03,0.17,0.07,0.26,0.04c0.09-0.04,0.14-0.13,0.16-0.19l0.03-0.07
		l-0.06-0.04L45.52,9.24z"/>
	<path class="st3" d="M49.62,14.78l1.03-0.51l-0.53,1.03L49.62,14.78z M51.48,13.98l-0.03-0.04c-0.05-0.08-0.09-0.14-0.15-0.19
		c-0.19-0.2-0.38-0.14-0.51-0.08c0,0-2.51,1.14-2.85,1.3l-0.21-0.13c-0.05-0.03-0.13-0.03-0.19-0.02c-0.07,0.02-0.12,0.08-0.15,0.14
		l-0.03,0.06l0.05,0.04c0.1,0.1,0.23,0.23,0.35,0.36c0.12,0.12,0.24,0.26,0.38,0.42c0.11,0.13,0.28,0.15,0.41,0.05l0.07-0.06
		l-0.05-0.07l-0.25-0.37l0.84-0.4l0.71,0.75l-0.41,0.83l-0.27-0.18c-0.06-0.03-0.13-0.04-0.2-0.02c-0.06,0.02-0.12,0.07-0.14,0.13
		l-0.03,0.06l0.05,0.04c0.11,0.09,0.26,0.25,0.43,0.43c0.21,0.22,0.37,0.4,0.44,0.47c0.11,0.13,0.29,0.15,0.41,0.05l0.06-0.05
		l-0.03-0.07L50,17.14l1.46-3.12L51.48,13.98z"/>
	<path class="st3" d="M36.22,49.22c-0.11-0.01-0.47-0.01-0.75-0.01c-0.29,0-0.67,0-0.82,0.01c-0.03-0.08,0.01-0.19,0.19-0.24
		l0.45-0.1v-2.12c-0.11,0.01-0.34,0.01-0.48,0.01c-0.15,0-0.21-0.06-0.19-0.23c0.21-0.04,1.04-0.24,1.19-0.3v2.64L36.49,49
		C36.47,49.14,36.37,49.23,36.22,49.22"/>
	<path class="st3" d="M36.22,49.22c-0.11-0.01-0.47-0.01-0.75-0.01c-0.29,0-0.67,0-0.82,0.01c-0.03-0.08,0.01-0.19,0.19-0.24
		l0.45-0.1v-2.12c-0.11,0.01-0.34,0.01-0.48,0.01c-0.15,0-0.21-0.06-0.19-0.23c0.21-0.04,1.04-0.24,1.19-0.3v2.64L36.49,49
		C36.47,49.14,36.37,49.23,36.22,49.22"/>
	<path class="st3" d="M38.94,47.64c0-0.55-0.18-1.07-0.56-1.07c-0.23,0-0.37,0.26-0.37,0.53c0,0.44,0.18,0.69,0.51,0.69
		c0.15,0,0.27-0.02,0.42-0.08V47.64z M38.17,49.28c-0.4,0-0.72-0.19-0.72-0.51c0-0.13,0.08-0.19,0.2-0.22
		c0.09,0.24,0.23,0.36,0.58,0.36c0.41,0,0.64-0.27,0.69-0.94c-0.14,0.1-0.34,0.15-0.62,0.15c-0.47,0-0.83-0.31-0.83-0.89
		c0-0.54,0.47-1,1-1c0.62,0,1.01,0.46,1.01,1.37C39.48,48.67,39.07,49.28,38.17,49.28"/>
	<path class="st3" d="M38.94,47.64c0-0.55-0.18-1.07-0.56-1.07c-0.23,0-0.37,0.26-0.37,0.53c0,0.44,0.18,0.69,0.51,0.69
		c0.15,0,0.27-0.02,0.42-0.08V47.64z M38.17,49.28c-0.4,0-0.72-0.19-0.72-0.51c0-0.13,0.08-0.19,0.2-0.22
		c0.09,0.24,0.23,0.36,0.58,0.36c0.41,0,0.64-0.27,0.69-0.94c-0.14,0.1-0.34,0.15-0.62,0.15c-0.47,0-0.83-0.31-0.83-0.89
		c0-0.54,0.47-1,1-1c0.62,0,1.01,0.46,1.01,1.37C39.48,48.67,39.07,49.28,38.17,49.28"/>
	<path class="st3" d="M41.42,46.64c-0.27,0-0.46,0.34-0.46,1.09c0,0.87,0.25,1.15,0.57,1.15c0.29,0,0.47-0.31,0.47-1.09
		C42,46.94,41.75,46.64,41.42,46.64 M41.35,49.27c-0.51,0-0.93-0.49-0.93-1.48c0-0.83,0.48-1.54,1.12-1.54
		c0.65,0,1.01,0.49,1.01,1.44C42.54,48.66,42.02,49.27,41.35,49.27"/>
	<path class="st3" d="M41.42,46.64c-0.27,0-0.46,0.34-0.46,1.09c0,0.87,0.25,1.15,0.57,1.15c0.29,0,0.47-0.31,0.47-1.09
		C42,46.94,41.75,46.64,41.42,46.64 M41.35,49.27c-0.51,0-0.93-0.49-0.93-1.48c0-0.83,0.48-1.54,1.12-1.54
		c0.65,0,1.01,0.49,1.01,1.44C42.54,48.66,42.02,49.27,41.35,49.27"/>
	<path class="st3" d="M44.89,46.81c-0.24,0-0.43-0.02-0.7-0.08l-0.02,0.62c0.82-0.05,1.25,0.33,1.25,0.89
		c0,0.68-0.54,1.04-1.19,1.04c-0.43,0-0.75-0.22-0.75-0.6c0-0.11,0.08-0.21,0.22-0.23c0.09,0.25,0.25,0.48,0.6,0.48
		c0.38,0,0.55-0.25,0.55-0.57c0-0.53-0.45-0.74-1.13-0.62l0.09-1.41c0.47,0.02,1.24,0.02,1.56-0.03
		C45.46,46.55,45.32,46.81,44.89,46.81"/>
	<path class="st3" d="M44.89,46.81c-0.24,0-0.43-0.02-0.7-0.08l-0.02,0.62c0.82-0.05,1.25,0.33,1.25,0.89
		c0,0.68-0.54,1.04-1.19,1.04c-0.43,0-0.75-0.22-0.75-0.6c0-0.11,0.08-0.21,0.22-0.23c0.09,0.25,0.25,0.48,0.6,0.48
		c0.38,0,0.55-0.25,0.55-0.57c0-0.53-0.45-0.74-1.13-0.62l0.09-1.41c0.47,0.02,1.24,0.02,1.56-0.03
		C45.46,46.55,45.32,46.81,44.89,46.81"/>
	<path class="st3" d="M28.15,39.06c-0.04,1.31-0.11,2.63,0.63,4.29c0.2,0.43-0.22,0.29-0.22,0.29c-1.04-0.29-1.76-1.37-2.14-2.54
		c-0.16-0.51-0.36-1.53-0.32-2.63c0.06-1.98,0.59-4.38,0.59-4.38c0.73-3.29,2.72-8.5,2.72-8.5c0.08-0.22-0.01-0.26-0.09-0.23
		c-0.09,0.04-0.19,0.18-0.19,0.18c-3.82,5.7-6.35,9.94-6.35,9.94c-0.32,0.47-0.46-0.03-0.46-0.03c0.04-2.08,0.32-9.84,0.32-9.84
		c0.02-0.2-0.02-0.26-0.07-0.27c-0.12-0.01-0.17,0.19-0.17,0.19c-0.1,0.2-2.31,6.42-3.83,10.39c-1.13,2.96-1.68,3.97-1.68,3.97
		c-0.35,0.57-0.84,0.77-1.33,0.92c-0.88,0.28-1.44,0.16-1.44,0.16c-0.39-0.08-0.13-0.37-0.13-0.37c1.29-0.88,3.05-3.79,4.47-6.96
		c2.21-4.93,3.85-10.13,3.85-10.13c0.13-0.45,0.13-0.73,0.07-0.89c-0.1-0.22-0.37-0.21-0.37-0.21c-2.66,0-4.2,3.12-4.2,3.12
		c-1.12,2.25-0.22,3.95-0.22,3.95c0.11,0.31-0.2,0.23-0.2,0.23c-2.31-0.91-1.44-3.73-1.44-3.73s1.04-4.89,9.06-4.3
		c0,0,0.14,0.02,0.14,0.19c0,0-0.43,6.99-0.43,8.57c0,0,0.08,0.45,0.29,0.06c0,0,3.95-5.98,5.82-8.61c0,0,0.06-0.17,0.3-0.17
		c0,0,1.45-0.05,2.94-0.01c0,0,0.22,0.03,0.2,0.16c0,0.07-0.03,0.14-0.19,0.23c0,0-0.6,0.19-1.37,1.35
		c-0.31,0.47-0.58,1.02-0.94,1.94c0,0-2.07,5.35-3.09,9.62C28.7,35.02,28.23,37.01,28.15,39.06"/>
	<path class="st3" d="M23.07,41.26c0.13-1.92,1.15-3.14,2.09-3.89c1.46-1.18,3.33-1.05,3.33-1.05c0.98,0.01,1.65,0.22,2.17,0.49
		c1.2,0.62,1.43,1.61,1.43,1.61c0.17,0.64,0.11,1.26-0.02,1.7c-0.37,1.21-1.51,1.51-1.51,1.51c-0.47,0.15-0.15-0.27-0.15-0.27
		c0.29-0.62,0.41-1.25,0.41-1.75c0.01-2.16-1.64-2.52-1.64-2.52c-0.81-0.22-1.69-0.09-2.27,0.13c-2.15,0.78-2.31,3.47-2.31,3.47
		c-0.43,3.73,2.55,4.82,2.55,4.82c3.49,1.33,6.27-1.31,6.27-1.31c2.42-2.31,1.44-5.18,1.44-5.18C34.54,37.78,32.78,35,32.78,35
		c-0.82-1.19-1.31-2.22-1.51-3.01c-0.3-1.16-0.14-2.37,0.26-3.28c0.55-1.24,1.8-2.78,4.5-3.2c0,0,2.2-0.37,3.6,0.3
		c0,0,0.14,0.1,0.09,0.25c0,0-0.76,1.53-1.11,2.53c0,0-0.05,0.15-0.18,0.21c-0.11,0.04-0.33,0.04-0.32-0.24c0,0,0.28-2.65-2-2.34
		c0,0-1.83,0.13-2.58,1.93c-0.18,0.42-0.54,1.59-0.08,2.88c0.26,0.71,0.87,1.92,1.6,2.95c0,0,2.11,3.04,2.23,4.76
		c0,0,0.76,4.51-4.28,6.98c0,0-4.01,1.98-7.6-0.04C25.4,45.69,22.84,44.49,23.07,41.26"/>
	<path class="st3" d="M41.83,40.87c-2.7,0.05-3.73-1.75-3.99-3.82c-0.38-2.99,1.06-6.89,1.06-6.89s2.38-8.96,8.39-8.55
		c0,0,1.56,0.14,2.41,0.66c0,0,0.17,0.12,0.1,0.3c0,0-1.29,2.95-1.36,4.1c0,0-0.06,0.2-0.32,0.11c-0.95-0.33-1.44-1.38-1.07-2.42
		c0.12-0.33,0.23-0.62,0.38-1.04c0.18-0.46,0.21-0.68,0.2-0.77c0-0.11-0.1-0.18-0.1-0.18c-0.21-0.09-0.51-0.11-0.75-0.1
		c-0.75,0.05-1.31,0.47-1.31,0.47c-2.46,1.72-4.43,8.6-4.43,8.6s-2.76,8.51,0.68,8.78c0,0,2.19,0.52,3.88-3.03
		c0,0,1.1-2.12,1.41-4.62c0,0,0.02-0.25,0.16-0.29c0.11-0.03,0.2,0.07,0.29,0.33c0,0,1.06,2.34-0.55,5.25
		C46.92,37.78,45.63,40.79,41.83,40.87"/>
</g>
</svg>
